<?xml version="1.0" encoding="utf-8"?>
<!-- Generator: Adobe Illustrator 25.2.3, SVG Export Plug-In . SVG Version: 6.00 Build 0)  -->
<svg version="1.1" id="Layer_1" xmlns="http://www.w3.org/2000/svg" xmlns:xlink="http://www.w3.org/1999/xlink" x="0px" y="0px"
	 viewBox="0 0 415.8 415.8" style="enable-background:new 0 0 415.8 415.8;" xml:space="preserve">
<style type="text/css">
	.st0{fill:#FFFFFF;stroke:#000000;stroke-width:13;stroke-miterlimit:10;}
</style>
<path class="st0" d="M375,237.4l-29.6-13.5c-4.6-2.1-7.5-6.6-7.5-11.6v-0.4c0.2-5.2,3.4-9.7,8.3-11.6l30.8-11.6
	c10.2-3.8,15.3-15.2,11.5-25.4l-15.7-41.7c-3.8-10.2-15.1-15.3-25.3-11.5c0,0-0.1,0-0.1,0l-30.8,11.6c-4.8,1.8-10.3,0.5-13.8-3.2
	l-0.1-0.1c-3.5-3.7-4.4-9.2-2.3-13.8l13.5-29.8c4.5-9.9,0.1-21.6-9.8-26.1l-40.5-18.4c-9.9-4.5-21.5-0.1-26,9.8c0,0,0,0,0,0
	l-13.5,29.7c-2.1,4.6-6.6,7.5-11.6,7.5h-0.4c-5.2-0.2-9.7-3.4-11.6-8.3L189,38.9c-2.9-7.7-10.2-12.8-18.5-12.8
	c-2.4,0-4.7,0.5-6.9,1.3l-41.7,15.6c-10.2,3.8-15.3,15.2-11.5,25.3l11.4,30.3c1.8,4.8,0.5,10.2-3.2,13.6l-0.2,0.2
	c-3.7,3.5-9.1,4.4-13.7,2.3l-29.8-13.5c-9.9-4.5-21.5-0.1-26,9.8c0,0,0,0,0,0.1l-18.4,40.6c-4.5,9.9-0.1,21.6,9.8,26.1l29.7,13.4
	c4.6,2.1,7.5,6.6,7.5,11.6v0.4c-0.2,5.2-3.4,9.7-8.3,11.6l-30.2,11.4c-10.1,3.8-15.3,15.2-11.5,25.4l15.7,41.7
	c3.8,10.2,15.2,15.3,25.3,11.5h0l30.2-11.4c4.8-1.8,10.3-0.5,13.8,3.2l0.1,0.1c3.5,3.7,4.4,9.2,2.3,13.8l-13.5,29.8
	c-4.5,9.9-0.1,21.6,9.8,26.1h0l40.6,18.4c9.9,4.5,21.6,0.1,26.1-9.8l13.4-29.7c2.1-4.6,6.6-7.5,11.6-7.5h0.4
	c5.2,0.2,9.7,3.4,11.6,8.3l11.6,30.8c3.8,10.2,15.2,15.3,25.3,11.5l0,0l41.7-15.7c10.2-3.8,15.3-15.2,11.5-25.4l-11.6-30.8
	c-1.8-4.8-0.5-10.3,3.2-13.8l0.1-0.1c2.3-2.2,5.4-3.4,8.6-3.4c1.8,0,3.6,0.4,5.2,1.1l29.8,13.5c9.9,4.5,21.6,0.1,26.1-9.8
	c0,0,0,0,0,0l18.4-40.6C389.3,253.6,384.9,241.9,375,237.4z M207.9,279c-39.3,0-71.1-31.8-71.1-71.1c0-39.3,31.8-71.1,71.1-71.1
	c39.3,0,71.1,31.8,71.1,71.1C279,247.2,247.2,279,207.9,279z"/>
</svg>
