<svg xmlns="http://www.w3.org/2000/svg" viewBox="0 0 756.89 510">
  <g id="Layer_2" data-name="Layer 2">
    <g id="Layer_1-2" data-name="Layer 1">
      <g>
        <g>
          <g>
            <rect x="9" y="140" width="91" height="230" rx="14.56" style="fill: #fff"/>
            <path d="M85.44,149A5.56,5.56,0,0,1,91,154.56V355.44A5.56,5.56,0,0,1,85.44,361H23.56A5.56,5.56,0,0,1,18,355.44V154.56A5.56,5.56,0,0,1,23.56,149H85.44m0-18H23.56A23.56,23.56,0,0,0,0,154.56V355.44A23.56,23.56,0,0,0,23.56,379H85.44A23.56,23.56,0,0,0,109,355.44V154.56A23.56,23.56,0,0,0,85.44,131Z"/>
          </g>
          <path d="M360,57.11V452.89a23.6,23.6,0,0,1-33.61,21.37l-189.8-88.9A23.59,23.59,0,0,1,123,364V146a23.59,23.59,0,0,1,13.59-21.37l189.8-88.9A23.6,23.6,0,0,1,360,57.11Z" style="fill: #fff;stroke: #000;stroke-miterlimit: 10;stroke-width: 18px"/>
        </g>
        <path d="M483.41,255c0,63.16-24.93,109.65-39.56,132a16.32,16.32,0,1,1-26.94-17.48,216.36,216.36,0,0,0,0-229A16.32,16.32,0,1,1,443.85,123C458.48,145.35,483.41,191.84,483.41,255Z" style="fill: #fff;stroke: #000;stroke-miterlimit: 10;stroke-width: 14px"/>
        <path d="M610.65,255c0,83.17-32.83,144.4-52.1,173.8a21.49,21.49,0,1,1-35.47-23c17.58-28.39,43.17-81,43.17-150.78s-25.59-122.39-43.17-150.78a21.49,21.49,0,1,1,35.47-23C577.82,110.6,610.65,171.83,610.65,255Z" style="fill: #fff;stroke: #000;stroke-miterlimit: 10;stroke-width: 14px"/>
        <path d="M749.89,255c0,110.3-43.54,191.51-69.1,230.5a28.5,28.5,0,1,1-47-30.53C657.07,417.32,691,347.5,691,255S657.07,92.68,633.75,55a28.5,28.5,0,1,1,47-30.53C706.35,63.49,749.89,144.7,749.89,255Z" style="fill: #fff;stroke: #000;stroke-miterlimit: 10;stroke-width: 14px"/>
      </g>
    </g>
  </g>
</svg>
