<svg xmlns="http://www.w3.org/2000/svg" viewBox="0 0 756.89 510">
  <g id="Layer_2" data-name="Layer 2">
    <g id="Layer_1-2" data-name="Layer 1">
      <g>
        <g>
          <g>
            <rect x="9" y="140" width="91" height="230" rx="14.56" style="fill: #fff"/>
            <path d="M85.44,149A5.56,5.56,0,0,1,91,154.56V355.44A5.56,5.56,0,0,1,85.44,361H23.56A5.56,5.56,0,0,1,18,355.44V154.56A5.56,5.56,0,0,1,23.56,149H85.44m0-18H23.56A23.56,23.56,0,0,0,0,154.56V355.44A23.56,23.56,0,0,0,23.56,379H85.44A23.56,23.56,0,0,0,109,355.44V154.56A23.56,23.56,0,0,0,85.44,131Z"/>
          </g>
          <path d="M360,57.11V452.89a23.6,23.6,0,0,1-33.61,21.37l-189.8-88.9A23.59,23.59,0,0,1,123,364V146a23.59,23.59,0,0,1,13.59-21.37l189.8-88.9A23.6,23.6,0,0,1,360,57.11Z" style="fill: #fff;stroke: #000;stroke-miterlimit: 10;stroke-width: 18px"/>
        </g>
      </g>
    </g>
  </g>
</svg>
